<?xml version="1.0" standalone="no"?>
<!DOCTYPE svg PUBLIC "-//W3C//DTD SVG 20010904//EN"
 "http://www.w3.org/TR/2001/REC-SVG-20010904/DTD/svg10.dtd">
<svg version="1.0" xmlns="http://www.w3.org/2000/svg"
 width="98.000000pt" height="98.000000pt" viewBox="0 0 98.000000 98.000000"
 preserveAspectRatio="xMidYMid meet">
<metadata>
Created by potrace 1.11, written by Peter Selinger 2001-2013
</metadata>
<g transform="translate(0.000000,98.000000) scale(0.100000,-0.100000)"
fill="#000000" stroke="none">
<path d="M450 811 c0 -10 9 -21 19 -24 24 -6 31 0 31 25 0 13 -7 18 -25 18
-18 0 -25 -5 -25 -19z"/>
<path d="M520 811 c0 -19 23 -35 34 -24 14 15 5 43 -14 43 -13 0 -20 -7 -20
-19z"/>
<path d="M582 808 c5 -36 47 -27 48 10 0 6 -12 12 -26 12 -21 0 -25 -4 -22
-22z"/>
<path d="M646 822 c-7 -12 10 -35 28 -38 11 -1 16 6 16 22 0 17 -6 24 -19 24
-11 0 -22 -4 -25 -8z"/>
<path d="M716 804 c-4 -10 -1 -21 6 -26 19 -11 33 -4 33 18 0 24 -30 30 -39 8z"/>
<path d="M779 779 c-9 -17 -8 -23 2 -30 20 -13 27 -11 38 9 7 14 5 21 -9 30
-16 10 -21 8 -31 -9z"/>
<path d="M325 761 c-92 -23 -155 -81 -180 -165 -44 -146 17 -289 141 -336 47
-17 78 -20 219 -20 91 0 165 4 165 8 0 4 -18 25 -39 46 l-40 39 -128 2 c-150
2 -181 13 -214 77 -28 55 -24 149 9 195 39 56 79 66 252 68 202 2 234 -12 232
-103 0 -38 -5 -51 -27 -70 -26 -22 -34 -23 -166 -21 -127 2 -140 1 -154 -17
-14 -19 -11 -48 7 -71 7 -9 38 -11 112 -7 l101 6 112 -116 c115 -119 142 -135
169 -99 26 34 15 55 -73 139 -77 74 -86 85 -70 95 62 37 91 103 85 190 -3 47
-10 66 -35 96 -48 60 -91 71 -283 71 -91 0 -178 -3 -195 -7z m15 -45 c0 -2 -9
-6 -20 -9 -11 -3 -18 -1 -14 4 5 9 34 13 34 5z m395 -16 c3 -6 -1 -7 -9 -4
-18 7 -21 14 -7 14 6 0 13 -4 16 -10z m-466 -16 c-35 -22 -69 -74 -76 -118 -3
-20 -9 -39 -13 -41 -14 -9 11 79 31 112 21 34 56 63 74 63 5 0 -2 -8 -16 -16z
m506 -26 l16 -33 -20 25 c-20 24 -26 40 -16 40 2 0 12 -15 20 -32z m16 -121
c-10 -9 -11 -8 -5 6 3 10 9 15 12 12 3 -3 0 -11 -7 -18z m-32 -63 c-12 -13
-30 -24 -38 -24 -10 0 -6 5 9 13 14 7 29 22 35 35 5 12 12 17 14 11 2 -6 -7
-21 -20 -35z m-569 -2 c0 -68 36 -121 114 -164 17 -9 26 -17 20 -18 -5 0 -32
14 -58 30 -33 21 -53 43 -66 73 -21 48 -32 117 -19 117 5 0 9 -17 9 -38z m423
-39 c-7 -2 -21 -2 -30 0 -10 3 -4 5 12 5 17 0 24 -2 18 -5z m51 -8 c-3 -6 21
-36 53 -66 66 -64 109 -109 102 -109 -2 0 -46 42 -97 93 -65 65 -87 93 -73 93
10 0 17 -5 15 -11z m-294 -135 c0 -5 -7 -7 -15 -4 -8 4 -15 8 -15 10 0 2 7 4
15 4 8 0 15 -4 15 -10z m85 0 c3 -5 -1 -10 -10 -10 -9 0 -13 5 -10 10 3 6 8
10 10 10 2 0 7 -4 10 -10z m-42 -7 c-7 -2 -19 -2 -25 0 -7 3 -2 5 12 5 14 0
19 -2 13 -5z m145 0 c-10 -2 -28 -2 -40 0 -13 2 -5 4 17 4 22 1 32 -1 23 -4z"/>
<path d="M831 736 c-15 -18 -3 -49 16 -42 8 3 17 6 19 6 10 0 3 29 -10 39 -10
8 -16 8 -25 -3z"/>
<path d="M857 673 c-10 -10 -8 -43 2 -43 24 0 38 13 34 31 -5 19 -23 25 -36
12z"/>
<path d="M857 603 c-9 -19 0 -36 21 -39 18 -3 22 1 22 21 0 18 -5 25 -19 25
-11 0 -22 -3 -24 -7z"/>
<path d="M430 571 c0 -21 21 -33 39 -22 17 11 2 41 -20 41 -12 0 -19 -7 -19
-19z"/>
<path d="M496 574 c-8 -20 -5 -23 23 -29 17 -3 21 1 21 21 0 28 -34 34 -44 8z"/>
<path d="M562 568 c4 -30 43 -33 43 -3 0 13 -8 21 -23 23 -20 3 -23 0 -20 -20z"/>
<path d="M629 588 c-5 -19 -6 -38 -1 -39 4 0 15 -2 25 -4 12 -2 17 3 17 21 0
17 -6 24 -20 24 -11 0 -20 -1 -21 -2z"/>
<path d="M856 542 c-14 -13 -5 -42 13 -42 26 0 35 37 10 43 -10 3 -20 2 -23
-1z"/>
<path d="M73 499 c-16 -16 -5 -39 19 -39 14 0 19 6 16 22 -4 25 -19 33 -35 17z"/>
<path d="M76 432 c-3 -3 -6 -14 -6 -24 0 -14 6 -19 23 -16 14 2 22 10 22 22 0
18 -27 31 -39 18z"/>
<path d="M96 361 c-7 -10 3 -41 13 -41 17 1 33 20 28 34 -7 17 -32 22 -41 7z"/>
<path d="M137 302 c-15 -16 -15 -19 3 -29 14 -10 21 -9 31 3 10 12 9 18 -3 30
-13 13 -16 13 -31 -4z"/>
<path d="M191 252 c-7 -14 -5 -21 9 -30 16 -10 21 -9 29 7 7 12 6 22 -1 29
-17 17 -26 15 -37 -6z"/>
<path d="M260 221 c-14 -26 -13 -28 10 -34 30 -8 47 28 21 43 -16 8 -22 6 -31
-9z"/>
<path d="M330 202 c0 -25 7 -31 29 -25 13 3 17 11 14 24 -7 25 -43 25 -43 1z"/>
<path d="M394 198 c2 -32 46 -33 46 -1 0 18 -6 23 -24 23 -18 0 -23 -5 -22
-22z"/>
<path d="M460 202 c0 -25 7 -31 29 -25 13 3 17 11 14 24 -7 25 -43 25 -43 1z"/>
<path d="M520 211 c0 -24 13 -38 31 -34 29 8 25 43 -6 43 -14 0 -25 -4 -25 -9z"/>
</g>
</svg>
